<svg xmlns="http://www.w3.org/2000/svg" xmlns:xlink="http://www.w3.org/1999/xlink" xmlns:lucid="lucid" width="859.72" height="1192.5"><g transform="translate(-490.28395061728395 -52)" lucid:page-tab-id="0_0"><path d="M1170 420c0-3.3 2.7-6 6-6h148c3.3 0 6 2.7 6 6v108c0 3.3-2.7 6-6 6h-148c-3.3 0-6-2.7-6-6z" stroke="#5e5e5e" stroke-width="3" fill="#fff"/><use xlink:href="#a" transform="matrix(1,0,0,1,1175,419.00000000000006) translate(28.117283950617285 59.02777777777778)"/><path d="M720 1018c0-3.3 2.7-6 6-6h268c3.3 0 6 2.7 6 6v168c0 3.3-2.7 6-6 6H726c-3.3 0-6-2.7-6-6z" stroke="#5e5e5e" stroke-width="3" fill="#fff"/><use xlink:href="#b" transform="matrix(1,0,0,1,725,1017) translate(41.148148148148195 88.63888888888889)"/><use xlink:href="#c" transform="matrix(1,0,0,1,725,1017) translate(168.61728395061726 88.63888888888889)"/><path d="M612.67 350c0-3.3 2.68-6 6-6h448c3.3 0 6 2.7 6 6v248c0 3.3-2.7 6-6 6h-448c-3.32 0-6-2.7-6-6z" stroke="#5e5e5e" stroke-width="3" fill="#fff"/><use xlink:href="#d" transform="matrix(1,0,0,1,617.6666666666666,349.00000000000006) translate(171.28395061728398 135.34027777777777)"/><path d="M929.77 610c0-3.3 2.7-6 6-6h29.37c3.32 0 6 2.7 6 6v40c0 3.3-2.68 6-6 6h-29.37c-3.3 0-6-2.7-6-6z" fill="none"/><path d="M929.77 604v51.95h41.33V604" stroke="#5e5e5e" stroke-width="3" fill-opacity="0"/><path d="M852.13 610c0-3.3 2.7-6 6-6h29.38c3.32 0 6 2.7 6 6v40c0 3.3-2.68 6-6 6h-29.37c-3.3 0-6-2.7-6-6z" fill="none"/><path d="M852.13 604v51.95h41.33V604" stroke="#5e5e5e" stroke-width="3" fill-opacity="0"/><path d="M774.5 610c0-3.3 2.68-6 6-6h29.37c3.3 0 6 2.7 6 6v40c0 3.3-2.7 6-6 6H780.5c-3.32 0-6-2.7-6-6z" fill="none"/><path d="M774.5 604v51.95h41.33V604" stroke="#5e5e5e" stroke-width="3" fill-opacity="0"/><path d="M700 610c0-3.3 2.7-6 6-6h29.37c3.32 0 6 2.7 6 6v40c0 3.3-2.68 6-6 6H706c-3.3 0-6-2.7-6-6z" fill="none"/><path d="M700 604v51.95h41.33V604" stroke="#5e5e5e" stroke-width="3" fill-opacity="0"/><path d="M740 78c0-3.3 2.7-6 6-6h448c3.3 0 6 2.7 6 6v148c0 3.3-2.7 6-6 6H746c-3.3 0-6-2.7-6-6z" stroke="#5e5e5e" stroke-width="3" fill="#fff"/><use xlink:href="#e" transform="matrix(1,0,0,1,745,77) translate(136.06481481481487 81.7847222222222)"/><path d="M843.67 341.5h-2v-34.83h2zm0-56.17h-2V252h2z" fill="#5e5e5e"/><path d="M843.67 342.5h-2v-1.03h2zM847.3 251h-9.27l4.64-14.26z" fill="#5e5e5e"/><path d="M848.68 252h-12.03l6.02-18.5zm-9.27-2h6.53l-3.26-10.03z" fill="#5e5e5e"/><use xlink:href="#f" transform="matrix(1,0,0,1,823.9506172839506,285.33333333333337) translate(0 14.222222222222223)"/><path d="M1110.33 467.87l.72 2.64 1.77 1.8 2.65.7h52.03v2h-52.3l-3.4-.92-2.54-2.53-.93-3.42V291.65h2zm0-197.55h-2V252h2z" fill="#5e5e5e"/><path d="M1168.5 475h-1.03v-2h1.03zM1113.97 251h-9.27l4.63-14.26z" fill="#5e5e5e"/><path d="M1115.35 252h-12.03l6-18.5zm-9.28-2h6.52l-3.27-10.03z" fill="#5e5e5e"/><use xlink:href="#f" transform="matrix(1,0,0,1,1090.6172839506175,270.31824199099816) translate(0 14.222222222222223)"/><path d="M701.37 570c0-3.3 2.7-6 6-6h28c3.32 0 6 2.7 6 6v28c0 3.3-2.68 6-6 6h-28c-3.3 0-6-2.7-6-6z" stroke="#000" stroke-opacity="0" stroke-width="3" fill="#fff" fill-opacity="0"/><use xlink:href="#g" transform="matrix(1,0,0,1,706.3731343283582,569) translate(-2.2530864197530853 19.444444444444443)"/><path d="M775.87 570c0-3.3 2.68-6 6-6h28c3.3 0 6 2.7 6 6v28c0 3.3-2.7 6-6 6h-28c-3.32 0-6-2.7-6-6z" stroke="#000" stroke-opacity="0" stroke-width="3" fill="#fff" fill-opacity="0"/><use xlink:href="#h" transform="matrix(1,0,0,1,780.8677870490071,569) translate(-2.2530864197530853 19.444444444444443)"/><path d="M853.5 570c0-3.3 2.7-6 6-6h28c3.32 0 6 2.7 6 6v28c0 3.3-2.68 6-6 6h-28c-3.3 0-6-2.7-6-6z" stroke="#000" stroke-opacity="0" stroke-width="3" fill="#fff" fill-opacity="0"/><use xlink:href="#i" transform="matrix(1,0,0,1,858.5053472793513,569) translate(-14.567901234567898 19.444444444444443)"/><path d="M918.63 565.67h69.13v36.66h-69.13z" fill="#fff" fill-opacity="0"/><use xlink:href="#j" transform="matrix(1,0,0,1,923.626865671642,570.6666666666666) translate(0 17.77777777777778)"/><path d="M680 818c0-3.3 2.7-6 6-6h324.33c3.32 0 6 2.7 6 6v68c0 3.3-2.68 6-6 6H686c-3.3 0-6-2.7-6-6z" stroke="#5e5e5e" stroke-width="3" fill="#fff"/><use xlink:href="#k" transform="matrix(1,0,0,1,685,817) translate(114.82716049382717 39.65277777777778)"/><path d="M680 818c0-3.3 2.7-6 6-6h48c3.3 0 6 2.7 6 6v8c0 3.3-2.7 6-6 6h-48c-3.3 0-6-2.7-6-6z" stroke="#000" stroke-opacity="0" stroke-width="3" fill="#fff" fill-opacity="0"/><use xlink:href="#l" transform="matrix(1,0,0,1,685,817) translate(5.246913580246922 14.222222222222218)"/><path d="M969.77 871.42c0-3.32 2.7-6 6-6h29.37c3.32 0 6 2.68 6 6V886c0 3.3-2.68 6-6 6h-29.37c-3.3 0-6-2.7-6-6z" stroke="#000" stroke-opacity="0" stroke-width="3" fill="#fff" fill-opacity="0"/><use xlink:href="#m" transform="matrix(1,0,0,1,974.7697731813372,870.4166666666665) translate(-3.7530864197530818 14.222222222222221)"/><path d="M840 818c0-3.3 2.7-6 6-6h28c3.3 0 6 2.7 6 6v8c0 3.3-2.7 6-6 6h-28c-3.3 0-6-2.7-6-6z" stroke="#000" stroke-opacity="0" stroke-width="3" fill="#fff" fill-opacity="0"/><use xlink:href="#n" transform="matrix(1,0,0,1,845,817) translate(-4.703703703703699 14.222222222222221)"/><path d="M833.25 871.42c0-3.32 2.68-6 6-6h41.5c3.32 0 6 2.68 6 6v21.16c0 3.32-2.68 6-6 6h-41.5c-3.32 0-6-2.68-6-6z" stroke="#000" stroke-opacity="0" stroke-width="3" fill="#fff" fill-opacity="0"/><use xlink:href="#n" transform="matrix(1,0,0,1,838.2473263603245,870.4166666666666) translate(2.296296296296301 15.722222222222221)"/><path d="M680 871.42c0-3.32 2.7-6 6-6h69.37c3.32 0 6 2.68 6 6v21.16c0 3.32-2.68 6-6 6H686c-3.3 0-6-2.68-6-6z" stroke="#000" stroke-opacity="0" stroke-width="3" fill="#fff" fill-opacity="0"/><use xlink:href="#o" transform="matrix(1,0,0,1,685,870.4166666666667) translate(2.4938271604938365 15.722222222222218)"/><g stroke="#5e5e5e" stroke-width="3"><path d="M1244.8 1067.32v-20.16c0-2.52 2.2-4.5 4.9-4.5 2.8 0 5 1.98 5 4.5v20.16c0 2.7-2.2 4.68-5 4.68-2.7 0-4.9-1.98-4.9-4.68z" fill="#ccc"/><path d="M1230.1 1046.8v-21.6h40.6v21.6h-40.6z" fill="#fff"/><path d="M1246.2 916.84v-20.16c0-2.52 2.2-4.5 4.9-4.5 2.8 0 5 1.98 5 4.5v20.16c0 2.7-2.2 4.68-5 4.68-2.7 0-4.9-1.98-4.9-4.68z" fill="#ccc"/><path d="M1231.5 939.52v-21.6h40.6v21.6h-40.6z" fill="#fff"/><path d="M1250 935.74c27.6 0 50 20.88 50 46.8 0 25.74-22.4 46.62-50 46.62s-50-20.88-50-46.62c0-25.92 22.4-46.8 50-46.8z" fill="#fff"/></g><path d="M794.2 871.42c0-3.32 2.68-6 6-6h40.12c3.32 0 6 2.68 6 6V886c0 3.3-2.68 6-6 6H800.2c-3.32 0-6-2.7-6-6z" stroke="#000" stroke-opacity="0" stroke-width="3" fill="#fff" fill-opacity="0"/><use xlink:href="#p" transform="matrix(1,0,0,1,799.1919144435301,870.4166666666667) translate(2.2407407407407476 14.222222222222218)"/><path d="M877.64 871.42c0-3.32 2.68-6 6-6h40.13c3.3 0 6 2.68 6 6V886c0 3.3-2.7 6-6 6h-40.13c-3.32 0-6-2.7-6-6z" stroke="#000" stroke-opacity="0" stroke-width="3" fill="#fff" fill-opacity="0"/><use xlink:href="#q" transform="matrix(1,0,0,1,882.6375602303442,870.4166666666667) translate(2.2407407407407476 14.222222222222218)"/><path d="M820.26 893v63c0 3.3 2.68 6 6 6H1044c3.3 0 6 2.7 6 6v139.47c0 3.32 2.7 6 6 6h188c3.3 0 6-2.68 6-6v-33" stroke="#5e5e5e" stroke-width="2" fill="none"/><path d="M821.26 893.03h-2V892h2zM1251 1074.5h-2v-1.15l.58.18 1.42-.2z" fill="#5e5e5e"/><path d="M903.7 893v33c0 3.3 2.7 6 6 6H1044c3.3 0 6-2.7 6-6v-68c0-3.3 2.7-6 6-6h185.47c3.3 0 6 2.7 6 6v33" stroke="#5e5e5e" stroke-width="2" fill="none"/><path d="M904.7 893.03h-2V892h2zM1248.47 891.36l-2 1.28v-1.67h2z" fill="#5e5e5e"/><path d="M722.36 1018c0-3.3 2.7-6 6-6h41.5c3.32 0 6 2.7 6 6v21.17c0 3.3-2.68 6-6 6h-41.5c-3.3 0-6-2.7-6-6z" stroke="#000" stroke-opacity="0" stroke-width="3" fill="#fff" fill-opacity="0"/><use xlink:href="#n" transform="matrix(1,0,0,1,727.362439769656,1017.0000000000001) translate(2.296296296296301 15.722222222222221)"/><path d="M749.12 1011v-23c0-3.3 2.68-6 6-6h101.4c3.33 0 6-2.7 6-6v-76.42" stroke="#5e5e5e" stroke-width="2" fill="none"/><path d="M750.12 1012h-2v-1.03h2zM863.53 899.6h-2v-1.02h2z" fill="#5e5e5e"/><path d="M993.33 894.5V916c0 3.3 2.7 6 6 6H1074c3.3 0 6 2.7 6 6v299.5c0 3.3-2.7 6-6 6H779.33c-3.3 0-6-2.7-6-6v-33" stroke="#5e5e5e" stroke-width="2" fill="none"/><path d="M994.33 894.53h-2v-1.03h2zM774.33 1194.53h-2v-1.03h2z" fill="#5e5e5e"/><path d="M741.37 1164.83c0-3.3 2.7-6 6-6h41.5c3.32 0 6 2.7 6 6V1186c0 3.3-2.68 6-6 6h-41.5c-3.3 0-6-2.7-6-6z" stroke="#000" stroke-opacity="0" stroke-width="3" fill="#fff" fill-opacity="0"/><use xlink:href="#r" transform="matrix(1,0,0,1,746.3731343283582,1163.833333333333) translate(11.135802469135804 15.722222222222221)"/><path d="M750.23 871.42c0-3.32 2.7-6 6-6h40.13c3.32 0 6 2.68 6 6V886c0 3.3-2.68 6-6 6h-40.13c-3.3 0-6-2.7-6-6z" stroke="#000" stroke-opacity="0" stroke-width="3" fill="#fff" fill-opacity="0"/><use xlink:href="#s" transform="matrix(1,0,0,1,755.2302268186629,870.4166666666665) translate(9.154320987654327 14.222222222222218)"/><path d="M927.13 871.42c0-3.32 2.68-6 6-6h40.13c3.3 0 6 2.68 6 6V886c0 3.3-2.7 6-6 6h-40.13c-3.32 0-6-2.7-6-6z" stroke="#000" stroke-opacity="0" stroke-width="3" fill="#fff" fill-opacity="0"/><use xlink:href="#t" transform="matrix(1,0,0,1,932.1286604307134,870.4166666666665) translate(9.154320987654327 14.222222222222218)"/><path d="M875.8 715.26h-2v-17.74h2zm0-39.07h-2v-17.75h2zM871.8 715.26h-2v-17.74h2zm0-39.07h-2v-17.75h2z" fill="#5e5e5e"/><path d="M875.8 658.47h-2v-1.02h2zM871.8 658.47h-2v-1.02h2zM875.8 716.26h-2v-1.02h2zM871.8 716.26h-2v-1.02h2z" fill="#5e5e5e"/><use xlink:href="#u" transform="matrix(1,0,0,1,853.6184213538202,676.1892333310216) translate(0 14.222222222222223)"/><path d="M873.8 716.13l-.92 3.42-2.53 2.53-3.4.92H616.12l-2.64.7-1.8 1.8-.7 2.63v197.74l.7 2.64 1.8 1.8 2.63.7h154.03l2.65-.7 1.78-1.8.72-2.63V893h2v33.13l-.93 3.42-2.53 2.53-3.4.92H615.86l-3.42-.92-2.53-2.53-.92-3.42V727.87l.92-3.42 2.53-2.53 3.42-.92h250.8l2.64-.7 1.8-1.8.7-2.63v-18.35h2zm0-39.94h-2v-17.75h2z" fill="#5e5e5e"/><path d="M873.8 658.47h-2v-1.02h2zM777.3 893.03h-2V892h2zM953.67 715.77h-2v-18h2zm0-39.33h-2v-18h2zM949.67 715.77h-2v-18h2zm0-39.33h-2v-18h2z" fill="#5e5e5e"/><path d="M953.67 658.47h-2v-1.02h2zM949.67 658.47h-2v-1.02h2zM953.67 716.77h-2v-1.03h2zM949.67 716.77h-2v-1.03h2z" fill="#5e5e5e"/><use xlink:href="#u" transform="matrix(1,0,0,1,931.4814814814814,676.4405821510477) translate(0 14.222222222222223)"/><path d="M951.67 764.4l.7 2.64 1.8 1.77 2.63.73h217.33l3.42.92 2.53 2.53.92 3.4v169.75l-.92 3.42-2.53 2.53-3.42.92h-217.6l-3.4-.92-2.54-2.53-.93-3.42V893h2v52.87l.7 2.64 1.8 1.8 2.63.7h217.07l2.64-.7 1.8-1.8.7-2.63v-169.2l-.7-2.65-1.8-1.78-2.63-.7H956.53l-3.4-.94-2.54-2.53-.93-3.4v-66.9h2zm0-87.96h-2v-18h2z" fill="#5e5e5e"/><path d="M951.67 658.47h-2v-1.02h2zM951.67 893.03h-2V892h2z" fill="#5e5e5e"/><path d="M872.8 718.33v91.17M872.8 717.33" stroke="#5e5e5e" stroke-width="2" fill="none"/><path d="M873.8 810.5h-2v-1.03h2zM951.67 766.13l-.93 3.42-2.53 2.53-3.4.92h-81.17l-2.64.7-1.8 1.8-.7 2.63v31.37h-2v-31.63l.92-3.42 2.53-2.53 3.42-.92h81.16l2.65-.7 1.77-1.8.72-2.63v-68.1h2zm0-89.7h-2v-17.98h2z" fill="#5e5e5e"/><path d="M951.67 658.47h-2v-1.02h2zM858.5 810.5h-2v-1.03h2z" fill="#5e5e5e"/><path d="M865.12 1018c0-3.3 2.7-6 6-6h41.5c3.32 0 6 2.7 6 6v21.17c0 3.3-2.68 6-6 6h-41.5c-3.3 0-6-2.7-6-6z" stroke="#000" stroke-opacity="0" stroke-width="3" fill="#fff" fill-opacity="0"/><use xlink:href="#v" transform="matrix(1,0,0,1,870.1215183922909,1017.0000000000001) translate(11.876543209876544 15.722222222222221)"/><path d="M891.87 1011v-13c0-3.3-2.68-6-6-6H726.7c-3.33 0-6-2.7-6-6v-86.42" stroke="#5e5e5e" stroke-width="2" fill="none"/><path d="M892.87 1012h-2v-1.03h2zM721.7 899.6h-2v-1.02h2z" fill="#5e5e5e"/><path d="M1205 966c0-3.3 2.7-6 6-6h78c3.3 0 6 2.7 6 6v32c0 3.3-2.7 6-6 6h-78c-3.3 0-6-2.7-6-6z" stroke="#000" stroke-opacity="0" stroke-width="3" fill="#fff" fill-opacity="0"/><use xlink:href="#w" transform="matrix(1,0,0,1,1210,965) translate(-5.52469135802469 21.444444444444443)"/><path d="M521 1095.87l.7 2.64 1.8 1.8 2.63.7H717.5v2H525.87l-3.42-.92-2.53-2.53-.92-3.42v-782.2h2zM720 153H526.13l-2.64.7-1.8 1.8-.7 2.63V292.6h-2V157.86l.92-3.42 2.53-2.53 3.42-.92H720z" fill="#5e5e5e"/><path d="M718.5 1103h-1.03v-2h1.03zM735.26 152L721 156.64v-9.28z" fill="#5e5e5e"/><path d="M738.5 152l-18.5 6v-12zm-16.5 3.26l10.03-3.26-10.03-3.26z" fill="#5e5e5e"/><use xlink:href="#f" transform="matrix(1,0,0,1,501.28395061728395,292.59024273011306) translate(0 14.222222222222223)"/><defs><path fill="#333" d="M24-248c93 1 206-16 204 79-1 75-69 88-152 82V0H24v-248zm52 121c47 0 100 7 100-41 0-47-54-39-100-39v80" id="x"/><path fill="#333" d="M25-224v-37h50v37H25zM25 0v-190h50V0H25" id="y"/><path fill="#333" d="M144 0l-44-69L55 0H2l70-98-66-92h53l41 62 40-62h54l-67 91 71 99h-54" id="z"/><path fill="#333" d="M123 10C108 53 80 86 19 72V37c35 8 53-11 59-39L3-190h52l48 148c12-52 28-100 44-148h51" id="A"/><path fill="#333" d="M67-125c0 53 21 87 73 88 37 1 54-22 65-47l45 17C233-25 199 4 140 4 58 4 20-42 15-125 8-235 124-281 211-232c18 10 29 29 36 50l-46 12c-8-25-30-41-62-41-52 0-71 34-72 86" id="B"/><path fill="#333" d="M133-34C117-15 103 5 69 4 32 3 11-16 11-54c-1-60 55-63 116-61 1-26-3-47-28-47-18 1-26 9-28 27l-52-2c7-38 36-58 82-57s74 22 75 68l1 82c-1 14 12 18 25 15v27c-30 8-71 5-69-32zm-48 3c29 0 43-24 42-57-32 0-66-3-65 30 0 17 8 27 23 27" id="C"/><path fill="#333" d="M220-157c-53 9-28 100-34 157h-49v-107c1-27-5-49-29-50C55-147 81-57 75 0H25l-1-190h47c2 12-1 28 3 38 10-53 101-56 108 0 13-22 24-43 59-42 82 1 51 116 57 194h-49v-107c-1-25-5-48-29-50" id="D"/><g id="a"><use transform="matrix(0.06172839506172839,0,0,0.06172839506172839,0,0)" xlink:href="#x"/><use transform="matrix(0.06172839506172839,0,0,0.06172839506172839,14.814814814814813,0)" xlink:href="#y"/><use transform="matrix(0.06172839506172839,0,0,0.06172839506172839,20.98765432098765,0)" xlink:href="#z"/><use transform="matrix(0.06172839506172839,0,0,0.06172839506172839,33.33333333333333,0)" xlink:href="#A"/><use transform="matrix(0.06172839506172839,0,0,0.06172839506172839,45.679012345679006,0)" xlink:href="#B"/><use transform="matrix(0.06172839506172839,0,0,0.06172839506172839,61.66666666666666,0)" xlink:href="#C"/><use transform="matrix(0.06172839506172839,0,0,0.06172839506172839,74.01234567901234,0)" xlink:href="#D"/></g><path fill="#333" d="M199 0l-22-63H83L61 0H9l90-248h61L250 0h-51zm-33-102l-36-108c-10 38-24 72-36 108h72" id="E"/><path fill="#333" d="M135-150c-39-12-60 13-60 57V0H25l-1-190h47c2 13-1 29 3 40 6-28 27-53 61-41v41" id="F"/><path fill="#333" d="M88-194c31-1 46 15 58 34l-1-101h50l1 261h-48c-2-10 0-23-3-31C134-8 116 4 84 4 32 4 16-41 15-95c0-56 19-97 73-99zm17 164c33 0 40-30 41-66 1-37-9-64-41-64s-38 30-39 65c0 43 13 65 39 65" id="G"/><path fill="#333" d="M85 4C-2 5 27-109 22-190h50c7 57-23 150 33 157 60-5 35-97 40-157h50l1 190h-47c-2-12 1-28-3-38-12 25-28 42-61 42" id="H"/><path fill="#333" d="M135-194c87-1 58 113 63 194h-50c-7-57 23-157-34-157-59 0-34 97-39 157H25l-1-190h47c2 12-1 28 3 38 12-26 28-41 61-42" id="I"/><path fill="#333" d="M110-194c64 0 96 36 96 99 0 64-35 99-97 99-61 0-95-36-95-99 0-62 34-99 96-99zm-1 164c35 0 45-28 45-65 0-40-10-65-43-65-34 0-45 26-45 65 0 36 10 65 43 65" id="J"/><g id="b"><use transform="matrix(0.0864197530864197,0,0,0.0864197530864197,0,0)" xlink:href="#E"/><use transform="matrix(0.0864197530864197,0,0,0.0864197530864197,22.382716049382704,0)" xlink:href="#F"/><use transform="matrix(0.0864197530864197,0,0,0.0864197530864197,34.48148148148147,0)" xlink:href="#G"/><use transform="matrix(0.0864197530864197,0,0,0.0864197530864197,53.407407407407376,0)" xlink:href="#H"/><use transform="matrix(0.0864197530864197,0,0,0.0864197530864197,72.3333333333333,0)" xlink:href="#y"/><use transform="matrix(0.0864197530864197,0,0,0.0864197530864197,80.97530864197527,0)" xlink:href="#I"/><use transform="matrix(0.0864197530864197,0,0,0.0864197530864197,99.90123456790118,0)" xlink:href="#J"/></g><path fill="#333" d="M238-95c0 69-44 99-111 99C63 4 22-25 22-93v-155h51v151c-1 38 19 59 55 60 90 1 49-130 58-211h52v153" id="K"/><g id="c"><use transform="matrix(0.0864197530864197,0,0,0.0864197530864197,0,0)" xlink:href="#K"/><use transform="matrix(0.0864197530864197,0,0,0.0864197530864197,22.382716049382704,0)" xlink:href="#I"/><use transform="matrix(0.0864197530864197,0,0,0.0864197530864197,41.30864197530862,0)" xlink:href="#J"/></g><path fill="#333" d="M182-130c37 4 62 22 62 59C244 23 116-4 24 0v-248c84 5 203-23 205 63 0 31-19 50-47 55zM76-148c40-3 101 13 101-30 0-44-60-28-101-31v61zm0 110c48-3 116 14 116-37 0-48-69-32-116-35v72" id="L"/><path fill="#333" d="M135-194c53 0 70 44 70 98 0 56-19 98-73 100-31 1-45-17-59-34 3 33 2 69 2 105H25l-1-265h48c2 10 0 23 3 31 11-24 29-35 60-35zM114-30c33 0 39-31 40-66 0-38-9-64-40-64-56 0-55 130 0 130" id="M"/><g id="d"><use transform="matrix(0.1172839506172839,0,0,0.1172839506172839,0,0)" xlink:href="#L"/><use transform="matrix(0.1172839506172839,0,0,0.1172839506172839,30.37654320987653,0)" xlink:href="#M"/><use transform="matrix(0.1172839506172839,0,0,0.1172839506172839,56.06172839506171,0)" xlink:href="#J"/><use transform="matrix(0.1172839506172839,0,0,0.1172839506172839,81.74691358024688,0)" xlink:href="#G"/></g><path fill="#333" d="M115-3C79 11 28 4 28-45v-112H4v-33h27l15-45h31v45h36v33H77v99c-1 23 16 31 38 25v30" id="N"/><path fill="#333" d="M185-48c-13 30-37 53-82 52C43 2 14-33 14-96s30-98 90-98c62 0 83 45 84 108H66c0 31 8 55 39 56 18 0 30-7 34-22zm-45-69c5-46-57-63-70-21-2 6-4 13-4 21h74" id="O"/><g id="e"><use transform="matrix(0.10493827160493821,0,0,0.10493827160493821,0,0)" xlink:href="#B"/><use transform="matrix(0.10493827160493821,0,0,0.10493827160493821,27.179012345678995,0)" xlink:href="#J"/><use transform="matrix(0.10493827160493821,0,0,0.10493827160493821,50.160493827160465,0)" xlink:href="#D"/><use transform="matrix(0.10493827160493821,0,0,0.10493827160493821,83.74074074074069,0)" xlink:href="#M"/><use transform="matrix(0.10493827160493821,0,0,0.10493827160493821,106.72222222222216,0)" xlink:href="#H"/><use transform="matrix(0.10493827160493821,0,0,0.10493827160493821,129.70370370370364,0)" xlink:href="#N"/><use transform="matrix(0.10493827160493821,0,0,0.10493827160493821,142.19135802469128,0)" xlink:href="#O"/><use transform="matrix(0.10493827160493821,0,0,0.10493827160493821,163.17901234567893,0)" xlink:href="#F"/></g><path fill="#333" d="M169-182c-1-43-94-46-97-3 18 66 151 10 154 114 3 95-165 93-204 36-6-8-10-19-12-30l50-8c3 46 112 56 116 5-17-69-150-10-154-114-4-87 153-88 188-35 5 8 8 18 10 28" id="P"/><g id="f"><use transform="matrix(0.04938271604938272,0,0,0.04938271604938272,0,0)" xlink:href="#K"/><use transform="matrix(0.04938271604938272,0,0,0.04938271604938272,12.790123456790125,0)" xlink:href="#P"/><use transform="matrix(0.04938271604938272,0,0,0.04938271604938272,24.641975308641978,0)" xlink:href="#L"/></g><path fill="#333" d="M33 0v-248h34V0H33" id="Q"/><path fill="#333" d="M190 0L58-211 59 0H30v-248h39L202-35l-2-213h31V0h-41" id="R"/><path fill="#333" d="M27 0v-27h64v-190l-56 39v-29l58-41h29v221h61V0H27" id="S"/><g id="g"><use transform="matrix(0.06172839506172839,0,0,0.06172839506172839,0,0)" xlink:href="#Q"/><use transform="matrix(0.06172839506172839,0,0,0.06172839506172839,6.172839506172839,0)" xlink:href="#R"/><use transform="matrix(0.06172839506172839,0,0,0.06172839506172839,22.160493827160494,0)" xlink:href="#S"/></g><path fill="#333" d="M101-251c82-7 93 87 43 132L82-64C71-53 59-42 53-27h129V0H18c2-99 128-94 128-182 0-28-16-43-45-43s-46 15-49 41l-32-3c6-41 34-60 81-64" id="T"/><g id="h"><use transform="matrix(0.06172839506172839,0,0,0.06172839506172839,0,0)" xlink:href="#Q"/><use transform="matrix(0.06172839506172839,0,0,0.06172839506172839,6.172839506172839,0)" xlink:href="#R"/><use transform="matrix(0.06172839506172839,0,0,0.06172839506172839,22.160493827160494,0)" xlink:href="#T"/></g><path fill="#333" d="M140-251c81 0 123 46 123 126C263-46 219 4 140 4 59 4 17-45 17-125s42-126 123-126zm0 227c63 0 89-41 89-101s-29-99-89-99c-61 0-89 39-89 99S79-25 140-24" id="U"/><path fill="#333" d="M232-93c-1 65-40 97-104 97C67 4 28-28 28-90v-158h33c8 89-33 224 67 224 102 0 64-133 71-224h33v155" id="V"/><path fill="#333" d="M127-220V0H93v-220H8v-28h204v28h-85" id="W"/><g id="i"><use transform="matrix(0.06172839506172839,0,0,0.06172839506172839,0,0)" xlink:href="#U"/><use transform="matrix(0.06172839506172839,0,0,0.06172839506172839,17.28395061728395,0)" xlink:href="#V"/><use transform="matrix(0.06172839506172839,0,0,0.06172839506172839,33.2716049382716,0)" xlink:href="#W"/><use transform="matrix(0.06172839506172839,0,0,0.06172839506172839,46.79012345679012,0)" xlink:href="#S"/></g><g id="j"><use transform="matrix(0.06172839506172839,0,0,0.06172839506172839,0,0)" xlink:href="#U"/><use transform="matrix(0.06172839506172839,0,0,0.06172839506172839,17.28395061728395,0)" xlink:href="#V"/><use transform="matrix(0.06172839506172839,0,0,0.06172839506172839,33.2716049382716,0)" xlink:href="#W"/><use transform="matrix(0.06172839506172839,0,0,0.06172839506172839,46.79012345679012,0)" xlink:href="#T"/></g><path fill="#333" d="M24 0v-248h52v208h133V0H24" id="X"/><path fill="#333" d="M182-182c0 78-84 86-111 141h115V0H12c-6-101 99-100 120-180 1-22-12-31-33-32-23 0-32 14-35 34l-49-3c5-45 32-70 84-70 51 0 83 22 83 69" id="Y"/><path fill="#333" d="M99-251c69 0 84 53 88 123 5 99-61 162-144 118-15-8-21-25-26-45l46-6c4 31 50 33 63 7 7-15 12-36 12-60-9 18-29 28-54 28-48 0-72-32-72-82 0-55 31-83 87-83zm-1 128c24 0 37-16 37-39 0-27-10-51-37-51-25 0-35 19-35 45 0 25 10 45 35 45" id="Z"/><path fill="#333" d="M128-127c34 4 56 21 59 58 7 91-148 94-172 28-4-9-6-17-7-26l51-5c1 24 16 35 40 36 23 0 39-12 38-36-1-31-31-36-65-34v-40c32 2 59-3 59-33 0-20-13-33-34-33s-33 13-35 32l-50-3c6-44 37-68 86-68 50 0 83 20 83 66 0 35-22 52-53 58" id="aa"/><path fill="#333" d="M24-248c120-7 223 5 221 122C244-46 201 0 124 0H24v-248zM76-40c74 7 117-18 117-86 0-67-45-88-117-82v168" id="ab"/><path fill="#333" d="M175 0L67-191c6 58 2 128 3 191H24v-248h59L193-55c-6-58-2-129-3-193h46V0h-61" id="ac"/><path fill="#333" d="M24 0v-248h195v40H76v63h132v40H76v65h150V0H24" id="ad"/><g id="k"><use transform="matrix(0.06172839506172839,0,0,0.06172839506172839,0,0)" xlink:href="#X"/><use transform="matrix(0.06172839506172839,0,0,0.06172839506172839,13.518518518518517,0)" xlink:href="#Y"/><use transform="matrix(0.06172839506172839,0,0,0.06172839506172839,25.864197530864196,0)" xlink:href="#Z"/><use transform="matrix(0.06172839506172839,0,0,0.06172839506172839,38.20987654320987,0)" xlink:href="#aa"/><use transform="matrix(0.06172839506172839,0,0,0.06172839506172839,50.55555555555555,0)" xlink:href="#ab"/><use transform="matrix(0.06172839506172839,0,0,0.06172839506172839,66.5432098765432,0)" xlink:href="#ac"/><use transform="matrix(0.06172839506172839,0,0,0.06172839506172839,82.53086419753086,0)" xlink:href="#ad"/></g><path fill="#333" d="M137 0h-34L2-248h35l83 218 83-218h36" id="ae"/><path fill="#333" d="M96-169c-40 0-48 33-48 73s9 75 48 75c24 0 41-14 43-38l32 2c-6 37-31 61-74 61-59 0-76-41-82-99-10-93 101-131 147-64 4 7 5 14 7 22l-32 3c-4-21-16-35-41-35" id="af"/><g id="l"><use transform="matrix(0.0493827160493827,0,0,0.0493827160493827,0,0)" xlink:href="#ae"/><use transform="matrix(0.0493827160493827,0,0,0.0493827160493827,11.851851851851848,0)" xlink:href="#af"/><use transform="matrix(0.0493827160493827,0,0,0.0493827160493827,20.740740740740733,0)" xlink:href="#af"/><use transform="matrix(0.0493827160493827,0,0,0.0493827160493827,29.62962962962962,0)" xlink:href="#T"/></g><g id="m"><use transform="matrix(0.049382716049382706,0,0,0.049382716049382706,0,0)" xlink:href="#ae"/><use transform="matrix(0.049382716049382706,0,0,0.049382716049382706,11.85185185185185,0)" xlink:href="#af"/><use transform="matrix(0.049382716049382706,0,0,0.049382716049382706,20.740740740740737,0)" xlink:href="#af"/><use transform="matrix(0.049382716049382706,0,0,0.049382716049382706,29.629629629629623,0)" xlink:href="#S"/></g><path fill="#333" d="M143 4C61 4 22-44 18-125c-5-107 100-154 193-111 17 8 29 25 37 43l-32 9c-13-25-37-40-76-40-61 0-88 39-88 99 0 61 29 100 91 101 35 0 62-11 79-27v-45h-74v-28h105v86C228-13 192 4 143 4" id="ag"/><path fill="#333" d="M30-248c118-7 216 8 213 122C240-48 200 0 122 0H30v-248zM63-27c89 8 146-16 146-99s-60-101-146-95v194" id="ah"/><g id="n"><use transform="matrix(0.049382716049382706,0,0,0.049382716049382706,0,0)" xlink:href="#ag"/><use transform="matrix(0.049382716049382706,0,0,0.049382716049382706,13.827160493827158,0)" xlink:href="#R"/><use transform="matrix(0.049382716049382706,0,0,0.049382716049382706,26.617283950617278,0)" xlink:href="#ah"/></g><path fill="#333" d="M212-179c-10-28-35-45-73-45-59 0-87 40-87 99 0 60 29 101 89 101 43 0 62-24 78-52l27 14C228-24 195 4 139 4 59 4 22-46 18-125c-6-104 99-153 187-111 19 9 31 26 39 46" id="ai"/><path fill="#333" d="M100-194c62-1 85 37 85 99 1 63-27 99-86 99S16-35 15-95c0-66 28-99 85-99zM99-20c44 1 53-31 53-75 0-43-8-75-51-75s-53 32-53 75 10 74 51 75" id="aj"/><path fill="#333" d="M117-194c89-4 53 116 60 194h-32v-121c0-31-8-49-39-48C34-167 62-67 57 0H25l-1-190h30c1 10-1 24 2 32 11-22 29-35 61-36" id="ak"/><path fill="#333" d="M59-47c-2 24 18 29 38 22v24C64 9 27 4 27-40v-127H5v-23h24l9-43h21v43h35v23H59v120" id="al"/><path fill="#333" d="M114-163C36-179 61-72 57 0H25l-1-190h30c1 12-1 29 2 39 6-27 23-49 58-41v29" id="am"/><path fill="#333" d="M24 0v-261h32V0H24" id="an"/><g id="o"><use transform="matrix(0.0493827160493827,0,0,0.0493827160493827,0,0)" xlink:href="#ai"/><use transform="matrix(0.0493827160493827,0,0,0.0493827160493827,12.79012345679012,0)" xlink:href="#aj"/><use transform="matrix(0.0493827160493827,0,0,0.0493827160493827,22.666666666666657,0)" xlink:href="#ak"/><use transform="matrix(0.0493827160493827,0,0,0.0493827160493827,32.543209876543195,0)" xlink:href="#al"/><use transform="matrix(0.0493827160493827,0,0,0.0493827160493827,37.48148148148147,0)" xlink:href="#am"/><use transform="matrix(0.0493827160493827,0,0,0.0493827160493827,43.35802469135801,0)" xlink:href="#aj"/><use transform="matrix(0.0493827160493827,0,0,0.0493827160493827,53.23456790123455,0)" xlink:href="#an"/><use transform="matrix(0.0493827160493827,0,0,0.0493827160493827,57.13580246913578,0)" xlink:href="#S"/></g><path fill="#333" d="M84 4C-5 8 30-112 23-190h32v120c0 31 7 50 39 49 72-2 45-101 50-169h31l1 190h-30c-1-10 1-25-2-33-11 22-28 36-60 37" id="ao"/><g id="p"><use transform="matrix(0.0493827160493827,0,0,0.0493827160493827,0,0)" xlink:href="#U"/><use transform="matrix(0.0493827160493827,0,0,0.0493827160493827,13.827160493827156,0)" xlink:href="#ao"/><use transform="matrix(0.0493827160493827,0,0,0.0493827160493827,23.703703703703695,0)" xlink:href="#al"/><use transform="matrix(0.0493827160493827,0,0,0.0493827160493827,28.641975308641964,0)" xlink:href="#S"/></g><g id="q"><use transform="matrix(0.0493827160493827,0,0,0.0493827160493827,0,0)" xlink:href="#U"/><use transform="matrix(0.0493827160493827,0,0,0.0493827160493827,13.827160493827156,0)" xlink:href="#ao"/><use transform="matrix(0.0493827160493827,0,0,0.0493827160493827,23.703703703703695,0)" xlink:href="#al"/><use transform="matrix(0.0493827160493827,0,0,0.0493827160493827,28.641975308641964,0)" xlink:href="#T"/></g><path fill="#333" d="M54-142c48-35 137-8 131 61C196 18 31 33 14-55l32-4c7 23 22 37 52 37 35-1 51-22 54-58 4-55-73-65-99-34H22l8-134h141v27H59" id="ap"/><g id="r"><use transform="matrix(0.049382716049382706,0,0,0.049382716049382706,0,0)" xlink:href="#ap"/><use transform="matrix(0.049382716049382706,0,0,0.049382716049382706,9.87654320987654,0)" xlink:href="#ae"/></g><g id="s"><use transform="matrix(0.0493827160493827,0,0,0.0493827160493827,0,0)" xlink:href="#Q"/><use transform="matrix(0.0493827160493827,0,0,0.0493827160493827,4.9382716049382696,0)" xlink:href="#ak"/><use transform="matrix(0.0493827160493827,0,0,0.0493827160493827,14.81481481481481,0)" xlink:href="#S"/></g><g id="t"><use transform="matrix(0.0493827160493827,0,0,0.0493827160493827,0,0)" xlink:href="#Q"/><use transform="matrix(0.0493827160493827,0,0,0.0493827160493827,4.9382716049382696,0)" xlink:href="#ak"/><use transform="matrix(0.0493827160493827,0,0,0.0493827160493827,14.81481481481481,0)" xlink:href="#T"/></g><g id="u"><use transform="matrix(0.04938271604938272,0,0,0.04938271604938272,0,0)" xlink:href="#L"/><use transform="matrix(0.04938271604938272,0,0,0.04938271604938272,12.790123456790125,0)" xlink:href="#ac"/><use transform="matrix(0.04938271604938272,0,0,0.04938271604938272,25.58024691358025,0)" xlink:href="#B"/></g><path fill="#333" d="M16-127c37-31 93-2 135 6 18-1 32-8 43-16v26c-50 42-130-35-178 9v-25" id="aq"/><g id="v"><use transform="matrix(0.049382716049382706,0,0,0.049382716049382706,0,0)" xlink:href="#aq"/><use transform="matrix(0.049382716049382706,0,0,0.049382716049382706,10.370370370370368,0)" xlink:href="#ap"/></g><path fill="#333" d="M190-63c-7 42-38 67-86 67-59 0-84-38-90-98-12-110 154-137 174-36l-49 2c-2-19-15-32-35-32-30 0-35 28-38 64-6 74 65 87 74 30" id="ar"/><g id="w"><use transform="matrix(0.06172839506172839,0,0,0.06172839506172839,0,0)" xlink:href="#E"/><use transform="matrix(0.06172839506172839,0,0,0.06172839506172839,15.987654320987653,0)" xlink:href="#ar"/><use transform="matrix(0.06172839506172839,0,0,0.06172839506172839,28.333333333333332,0)" xlink:href="#N"/><use transform="matrix(0.06172839506172839,0,0,0.06172839506172839,35.67901234567901,0)" xlink:href="#H"/><use transform="matrix(0.06172839506172839,0,0,0.06172839506172839,49.19753086419753,0)" xlink:href="#C"/><use transform="matrix(0.06172839506172839,0,0,0.06172839506172839,61.54320987654321,0)" xlink:href="#N"/><use transform="matrix(0.06172839506172839,0,0,0.06172839506172839,68.88888888888889,0)" xlink:href="#J"/><use transform="matrix(0.06172839506172839,0,0,0.06172839506172839,82.4074074074074,0)" xlink:href="#F"/></g></defs></g></svg>