<?xml version="1.0" encoding="UTF-8" standalone="no"?>
<!DOCTYPE svg PUBLIC "-//W3C//DTD SVG 1.1//EN"
 "http://www.w3.org/Graphics/SVG/1.1/DTD/svg11.dtd">
<!-- Generated by graphviz version 2.40.1 (20161225.0304)
 -->
<!-- Title: %3 Pages: 1 -->
<svg width="427pt" height="305pt"
 viewBox="0.00 0.00 426.72 305.00" xmlns="http://www.w3.org/2000/svg" xmlns:xlink="http://www.w3.org/1999/xlink">
<g id="graph0" class="graph" transform="scale(1 1) rotate(0) translate(4 301)">
<title>%3</title>
<polygon fill="#ffffff" stroke="transparent" points="-4,4 -4,-301 422.715,-301 422.715,4 -4,4"/>
<!-- INITIATE -->
<g id="node1" class="node">
<title>INITIATE</title>
<ellipse fill="none" stroke="#000000" cx="193.715" cy="-279" rx="48.1917" ry="18"/>
<text text-anchor="middle" x="193.715" y="-275.3" font-family="Times,serif" font-size="14.00" fill="#000000">INITIATE</text>
</g>
<!-- QUERY_SUBJECT_LOCATION -->
<g id="node2" class="node">
<title>QUERY_SUBJECT_LOCATION</title>
<ellipse fill="none" stroke="#000000" cx="193.715" cy="-192" rx="131.8766" ry="18"/>
<text text-anchor="middle" x="193.715" y="-188.3" font-family="Times,serif" font-size="14.00" fill="#000000">QUERY_SUBJECT_LOCATION</text>
</g>
<!-- INITIATE&#45;&gt;QUERY_SUBJECT_LOCATION -->
<g id="edge1" class="edge">
<title>INITIATE&#45;&gt;QUERY_SUBJECT_LOCATION</title>
<path fill="none" stroke="#000000" d="M193.715,-260.9735C193.715,-249.1918 193.715,-233.5607 193.715,-220.1581"/>
<polygon fill="#000000" stroke="#000000" points="197.2151,-220.0033 193.715,-210.0034 190.2151,-220.0034 197.2151,-220.0033"/>
<text text-anchor="middle" x="228.715" y="-231.8" font-family="Times,serif" font-size="14.00" fill="#000000">(after 3 sec.)</text>
</g>
<!-- ENTER_LANE -->
<g id="node3" class="node">
<title>ENTER_LANE</title>
<ellipse fill="none" stroke="#000000" cx="122.715" cy="-105" rx="66.8882" ry="18"/>
<text text-anchor="middle" x="122.715" y="-101.3" font-family="Times,serif" font-size="14.00" fill="#000000">ENTER_LANE</text>
</g>
<!-- QUERY_SUBJECT_LOCATION&#45;&gt;ENTER_LANE -->
<g id="edge2" class="edge">
<title>QUERY_SUBJECT_LOCATION&#45;&gt;ENTER_LANE</title>
<path fill="none" stroke="#000000" d="M81.4112,-182.4947C47.4595,-177.1426 16.3284,-168.8386 5.715,-156 -12.4032,-134.0831 17.0457,-121.3237 50.9244,-114.0483"/>
<polygon fill="#000000" stroke="#000000" points="51.9122,-117.4209 61.0451,-112.0505 50.5566,-110.5534 51.9122,-117.4209"/>
<text text-anchor="middle" x="65.715" y="-144.8" font-family="Times,serif" font-size="14.00" fill="#000000">EVT_ENTER_LANE</text>
</g>
<!-- EXIT_LANE -->
<g id="node4" class="node">
<title>EXIT_LANE</title>
<ellipse fill="none" stroke="#000000" cx="265.715" cy="-105" rx="58.4896" ry="18"/>
<text text-anchor="middle" x="265.715" y="-101.3" font-family="Times,serif" font-size="14.00" fill="#000000">EXIT_LANE</text>
</g>
<!-- QUERY_SUBJECT_LOCATION&#45;&gt;EXIT_LANE -->
<g id="edge3" class="edge">
<title>QUERY_SUBJECT_LOCATION&#45;&gt;EXIT_LANE</title>
<path fill="none" stroke="#000000" d="M208.6335,-173.9735C219.032,-161.4087 233.0538,-144.4657 244.5976,-130.5168"/>
<polygon fill="#000000" stroke="#000000" points="247.3827,-132.6412 251.062,-122.7057 241.9899,-128.1782 247.3827,-132.6412"/>
<text text-anchor="middle" x="287.215" y="-144.8" font-family="Times,serif" font-size="14.00" fill="#000000">EVT_EXIT_LANE</text>
</g>
<!-- ENTER_LANE&#45;&gt;QUERY_SUBJECT_LOCATION -->
<g id="edge4" class="edge">
<title>ENTER_LANE&#45;&gt;QUERY_SUBJECT_LOCATION</title>
<path fill="none" stroke="#000000" d="M129.688,-123.1039C134.179,-133.3885 140.679,-146.1385 148.715,-156 152.0272,-160.0645 155.8691,-163.9736 159.8851,-167.6205"/>
<polygon fill="#000000" stroke="#000000" points="157.8412,-170.4767 167.7289,-174.2826 162.3727,-165.1413 157.8412,-170.4767"/>
<text text-anchor="middle" x="183.715" y="-144.8" font-family="Times,serif" font-size="14.00" fill="#000000">(after 0 sec.)</text>
</g>
<!-- exit -->
<g id="node5" class="node">
<title>exit</title>
<ellipse fill="none" stroke="#000000" cx="193.715" cy="-18" rx="27" ry="18"/>
<text text-anchor="middle" x="193.715" y="-14.3" font-family="Times,serif" font-size="14.00" fill="#000000">exit</text>
</g>
<!-- ENTER_LANE&#45;&gt;exit -->
<g id="edge6" class="edge">
<title>ENTER_LANE&#45;&gt;exit</title>
<path fill="none" stroke="#000000" d="M137.0829,-87.3943C147.7866,-74.2785 162.5202,-56.2247 174.2762,-41.8195"/>
<polygon fill="#000000" stroke="#000000" points="177.1898,-43.7849 180.8009,-33.8244 171.7665,-39.359 177.1898,-43.7849"/>
<text text-anchor="middle" x="188.715" y="-57.8" font-family="Times,serif" font-size="14.00" fill="#000000">EVT_exit</text>
</g>
<!-- EXIT_LANE&#45;&gt;QUERY_SUBJECT_LOCATION -->
<g id="edge5" class="edge">
<title>EXIT_LANE&#45;&gt;QUERY_SUBJECT_LOCATION</title>
<path fill="none" stroke="#000000" d="M310.5863,-116.6265C335.3181,-125.2708 358.4739,-138.5753 344.715,-156 337.7318,-164.8438 319.1981,-171.7512 297.4053,-177.0436"/>
<polygon fill="#000000" stroke="#000000" points="296.5172,-173.6562 287.5432,-179.2881 298.0706,-180.4817 296.5172,-173.6562"/>
<text text-anchor="middle" x="383.715" y="-144.8" font-family="Times,serif" font-size="14.00" fill="#000000">(after 0 sec.)</text>
</g>
<!-- EXIT_LANE&#45;&gt;exit -->
<g id="edge7" class="edge">
<title>EXIT_LANE&#45;&gt;exit</title>
<path fill="none" stroke="#000000" d="M251.1448,-87.3943C240.2903,-74.2785 225.3493,-56.2247 213.4277,-41.8195"/>
<polygon fill="#000000" stroke="#000000" points="215.8832,-39.2969 206.8111,-33.8244 210.4904,-43.7599 215.8832,-39.2969"/>
<text text-anchor="middle" x="260.715" y="-57.8" font-family="Times,serif" font-size="14.00" fill="#000000">EVT_exit</text>
</g>
</g>
</svg>
